<svg xmlns="http://www.w3.org/2000/svg" version="1.1" xmlns:xlink="http://www.w3.org/1999/xlink" width="1000" height="1000"><g clip-path="url(#SvgjsClipPath1145)"><rect width="1000" height="1000" fill="#000000"></rect><g transform="matrix(4.6875,0,0,4.6875,50,50)"><svg xmlns="http://www.w3.org/2000/svg" version="1.1" xmlns:xlink="http://www.w3.org/1999/xlink" width="192" height="192"><svg width="192" height="192" viewBox="0 0 192 192" fill="none" xmlns="http://www.w3.org/2000/svg">
<path d="M96.2017 14C96.8482 14.0653 97.4643 14.2247 98.0489 14.4783C98.2062 14.5463 98.7593 14.847 99.7091 15.3803C111.415 21.9485 123.058 28.6278 134.637 35.4179C134.826 35.5293 135.037 35.6354 135.021 35.8786C135.009 36.0519 134.945 36.1735 134.827 36.2435C122.319 43.6564 109.036 51.3159 94.9772 59.2221C94.0742 59.73 93.4829 60.0749 93.2025 60.2571C91.7073 61.2311 90.5372 62.5392 89.924 64.1638C89.0362 66.5181 89.1935 69.1817 89.3633 71.7251C89.4024 72.3115 89.4243 72.8808 89.431 73.4319C89.5149 80.4677 89.5292 87.5263 89.4729 94.6098C89.4643 95.5795 89.4882 96.2679 89.5425 96.6751C89.8715 99.1227 91.3458 100.879 93.4562 102.113C94.7179 102.851 96.03 103.077 97.3479 102.529C98.5896 102.014 99.9199 101.096 100.768 100.02C101.819 98.686 102.343 97.1308 102.341 95.3554C102.335 90.8178 102.343 83.0945 102.366 72.1847C102.368 71.4153 102.415 70.8565 102.506 70.5066C102.877 69.0869 104.035 67.9715 105.291 67.2582C110.342 64.3933 114.884 61.7799 118.917 59.418C119.669 58.9775 120.216 58.7126 120.555 58.6233C121.891 58.2738 123.308 58.6346 124.479 59.3263C126.847 60.7267 130.216 62.7196 134.583 65.3049C134.728 65.3908 134.824 65.4626 134.873 65.5203C134.975 65.6433 134.992 65.7729 134.922 65.909C134.876 65.999 134.762 66.0986 134.582 66.2079C128.701 69.7543 123.312 72.9265 118.413 75.7241C116.264 76.9512 115.922 79.066 115.944 81.3373C116.01 88.3053 116.037 95.1085 116.023 101.748C116.02 102.938 116.017 103.628 116.015 103.817C116.005 104.753 115.949 105.434 115.849 105.86C115.661 106.645 115.291 107.356 114.739 107.993C114.16 108.659 113.604 109.159 113.071 109.49C110.537 111.068 106.903 113.374 102.171 116.41C101.124 117.083 100.033 117.584 98.8976 117.918C95.229 118.994 91.7006 117.986 88.6318 115.829C85.6098 113.702 82.3513 111.574 78.8581 109.443C77.2494 108.462 76.208 107.115 75.9 105.204C75.7579 104.326 75.694 103.414 75.7074 102.47C75.8914 89.6212 75.901 76.7271 75.7369 63.7875C75.7322 63.3485 75.716 62.6616 75.6902 61.727C75.6244 59.351 75.3984 56.541 76.8527 54.4846C77.3867 53.728 78.0037 53.1515 78.7037 52.7549C88.1388 47.4072 97.2659 42.1219 106.086 36.8992C106.392 36.7177 106.495 36.2817 106.275 35.9776C106.235 35.922 106.157 35.8227 106.04 35.6797C103.186 32.1782 98.9109 29.8125 94.3068 30.7525C93.7699 30.8624 93.1167 31.0687 92.349 31.371C91.095 31.8651 90.0337 32.3627 89.1659 32.8636C81.3376 37.3806 73.8087 41.7065 66.5804 45.8414C66.085 46.1245 65.7318 46.3523 65.5208 46.5248C64.4909 47.3648 63.9142 48.6461 63.7046 49.9532C63.5799 50.7311 63.5182 51.3692 63.5196 51.8674C63.5586 64.7875 63.5812 73.2917 63.5874 77.3793C63.608 90.567 63.6803 101.216 63.8042 109.326C63.82 110.377 63.9509 111.359 64.1969 112.273C64.6522 113.964 65.6667 115.217 67.0686 116.236C67.6511 116.659 68.1132 116.976 68.4552 117.185C75.9763 121.791 83.6415 126.233 91.4488 130.514C92.2432 130.95 92.8631 131.247 93.3074 131.404C94.9181 131.973 96.5746 132.003 98.2768 131.493C98.9777 131.282 99.5832 131.034 100.095 130.748C107.93 126.371 115.767 121.808 123.606 117.062C124.107 116.757 124.626 116.387 125.166 115.947C126.743 114.663 127.661 113.005 127.918 110.973C128.047 109.962 128.119 108.853 128.137 107.648C128.276 97.886 128.366 91.7703 128.407 89.3008C128.436 87.5635 128.713 85.8139 129.815 84.438C130.403 83.7019 131.376 83.0078 132.206 82.5253C143.904 75.7193 154.602 69.4921 165.88 63.0774C166.188 62.9021 166.405 62.809 166.53 62.798C167.043 62.7526 167.507 63.0783 167.62 63.5835C167.815 64.4603 167.918 65.3753 167.928 66.3285C167.937 67.36 167.938 70.6086 167.93 76.074C167.908 92.6113 167.93 109.149 167.997 125.686C168.001 125.7 168.001 125.716 167.997 125.735V129.489V131.988C167.976 132.099 167.976 132.213 167.997 132.33C167.997 132.339 167.997 132.349 167.997 132.358C167.881 133.992 167.798 135.524 166.954 136.971C165.954 138.686 164.324 139.719 162.612 140.692C141.367 152.776 120.19 164.98 99.0826 177.304C98.3988 177.703 97.5768 177.935 96.6156 178H96.544H96.1159H96.0262C95.0917 177.928 94.1857 177.725 93.3094 177.393C92.4158 177.053 91.6491 176.698 91.0092 176.328C70.2088 164.279 49.0726 152.049 27.9458 140.004C27.6361 139.828 27.2616 139.57 26.8223 139.228C25.1872 137.961 24.3526 136.19 24.1439 134.127C24.0815 133.508 24.0336 132.888 24 132.265V132.193C24.0206 132.133 24.0206 132.078 24 132.027C24 132.022 24 132.018 24 132.014C24.0226 131.952 24.0226 131.907 24 131.881V129.395V127.035V126.936C24.0157 126.916 24.0236 126.885 24.0236 126.846C24.1155 105.968 24.1299 84.2702 24.0668 61.7537C24.0654 61.1051 24.1038 60.2388 24.182 59.1551C24.295 57.5904 24.6671 55.8309 25.4832 54.4866C25.919 53.7692 26.39 53.1906 26.8963 52.7508C27.6823 52.0684 28.5066 51.5286 29.3693 51.1314C30.2337 50.7325 31.3407 50.2779 32.315 49.7728C33.8177 48.9949 35.2789 48.1672 36.6986 47.2896C36.935 47.1439 37.1122 47.0742 37.2301 47.0804C37.635 47.0989 37.7029 47.4319 37.7019 47.804C37.6761 80.1044 37.6751 99.0655 37.7183 125.018C37.7197 126 37.7604 126.684 37.8406 127.071C38.3802 129.682 40.6722 131.277 42.8285 132.5C59.4217 141.909 75.7894 151.335 91.9323 160.777C92.7868 161.277 93.3923 161.592 93.7509 161.727C94.9296 162.165 96.1378 162.199 97.3727 161.827C98.3578 161.529 99.3343 161.1 100.301 160.538C112.201 153.624 125.842 145.71 141.224 136.796C143.272 135.609 145.607 134.266 148.232 132.768C150.308 131.583 152.241 130.263 153.173 128.166C153.787 126.782 153.894 125.483 153.926 123.808C154.161 111.511 154.174 99.648 153.968 88.2195C153.96 87.7466 153.518 87.3881 153.056 87.3824C153.035 87.3824 152.823 87.4129 152.421 87.472C150.759 87.7199 149.238 88.2024 147.857 88.9184C144.349 90.7348 142.484 93.9176 142.159 97.8135C142.117 98.317 142.1 99.0016 142.106 99.8664C142.144 104.532 142.159 109.274 142.149 114.091C142.147 115.249 142.116 116.364 142.055 117.434C141.937 119.502 141.422 121.524 140.094 123.088C139.287 124.038 138.423 124.612 137.221 125.324C125.804 132.08 114.3 138.704 102.706 145.196C101.366 145.947 100.058 146.645 98.7831 147.294C98.4904 147.442 98.0803 147.629 97.7313 147.728C96.2875 148.132 94.8828 148.087 93.5163 147.592C92.864 147.357 92.1946 147.048 91.508 146.665C91.3153 146.558 88.6576 145.044 83.5338 142.124C73.7582 136.555 63.9451 130.835 54.0944 124.965C53.645 124.698 53.1516 124.325 52.6144 123.847C50.889 122.31 50.0251 120.369 50.0223 118.025C50.0086 105.837 49.9812 95.119 49.9401 85.872C49.9229 82.0753 49.9962 68.0217 50.16 43.7128C50.1662 42.7273 50.346 41.6914 50.7448 40.7719C51.5137 38.9958 53.1993 37.9156 54.7944 36.9692C60.0185 33.8714 64.1523 31.4298 67.1961 29.6445C75.9944 24.4843 84.6638 19.5193 93.2016 14.7493C93.9197 14.3488 94.6854 14.099 95.4989 14H96.2017Z" fill="white"></path>
<path d="M140.093 54.2896C138.561 53.3599 136.952 52.2803 135.266 51.0508C135.124 50.9467 135.039 50.8391 135.013 50.7284C134.969 50.5399 135.037 50.39 135.22 50.2785C137.407 48.9415 140.046 47.3834 143.139 45.6044C143.602 45.3377 144.219 45.0282 144.681 44.8152C145.936 44.236 147.304 43.8378 148.617 44.0647C149.017 44.1344 149.628 44.3683 150.451 44.7665C153.515 46.2481 156.465 47.904 159.3 49.7341C159.73 50.0117 160.094 50.1431 159.978 50.6128C159.946 50.7416 159.854 50.875 159.702 51.013C158.419 52.1848 157.102 53.2504 155.753 54.2099C154.547 55.0665 153.335 55.7467 152.118 56.2503C147.964 57.9702 143.706 56.4832 140.093 54.2896Z" fill="white"></path>
</svg></svg></g></g><defs><clipPath id="SvgjsClipPath1145"><rect width="1000" height="1000" x="0" y="0" rx="300" ry="300"></rect></clipPath></defs></svg>