<svg width="2930" height="500" viewBox="0 0 2930 500" fill="none" xmlns="http://www.w3.org/2000/svg">
<path d="M605.771 390H555V110H605.771V390ZM893.419 390H842.648V272.845C842.648 266.205 841.478 260.282 839.132 255.075C836.92 249.739 833.858 245.182 829.955 241.408C826.047 237.634 821.427 234.768 816.09 232.819C810.883 230.736 805.217 229.695 799.101 229.695H710.249V390H659.474V204.115C659.474 200.6 660.124 197.346 661.428 194.351C662.728 191.227 664.553 188.559 666.894 186.346C669.24 184.003 671.972 182.181 675.097 180.879C678.221 179.577 681.542 178.926 685.058 178.926H799.489C805.871 178.926 812.574 179.642 819.606 181.074C826.763 182.506 833.796 184.849 840.695 188.103C847.727 191.227 854.363 195.263 860.612 200.209C866.99 205.026 872.589 210.95 877.405 217.977C882.354 224.875 886.262 232.881 889.124 241.996C891.986 251.106 893.419 261.39 893.419 272.845V390ZM1122.68 229.695H1008.44C1001.54 229.695 996.331 231.453 992.819 234.964C989.303 238.351 987.545 243.362 987.545 250.002V390H936.77V250.002C936.77 241.279 937.879 233.469 940.091 226.571C942.307 219.668 945.236 213.616 948.881 208.41C952.655 203.073 956.95 198.582 961.766 194.937C966.586 191.162 971.598 188.103 976.805 185.76C982.142 183.417 987.479 181.725 992.819 180.684C998.285 179.512 1003.36 178.926 1008.05 178.926H1122.68V229.695ZM1359.95 390H1222.27C1215.24 390 1207.56 388.763 1199.23 386.289C1190.9 383.818 1183.15 379.782 1175.99 374.184C1168.96 368.456 1163.04 361.1 1158.22 352.119C1153.53 343.009 1151.19 331.879 1151.19 318.732V250.002C1151.19 245.182 1151.71 240.109 1152.75 234.768C1153.93 229.432 1155.68 224.163 1158.03 218.956C1160.37 213.616 1163.36 208.54 1167.01 203.724C1170.78 198.908 1175.27 194.677 1180.48 191.032C1185.82 187.388 1191.94 184.458 1198.84 182.246C1205.74 180.033 1213.55 178.926 1222.27 178.926H1359.95V229.695H1222.27C1215.63 229.695 1210.55 231.386 1207.04 234.768C1203.66 238.155 1201.96 243.362 1201.96 250.389V318.732C1201.96 325.368 1203.72 330.446 1207.23 333.962C1210.75 337.477 1215.89 339.231 1222.66 339.231H1359.95V390ZM1630.02 318.732C1630.02 327.451 1628.91 335.328 1626.7 342.355C1624.49 349.257 1621.56 355.376 1617.91 360.712C1614.27 365.919 1610.03 370.41 1605.22 374.184C1600.4 377.828 1595.32 380.823 1589.98 383.164C1584.78 385.51 1579.44 387.267 1573.97 388.438C1568.63 389.479 1563.56 390 1558.74 390H1467.15C1460.13 390 1452.44 388.763 1444.11 386.289C1435.78 383.818 1428.03 379.782 1420.87 374.184C1413.84 368.456 1407.92 361.1 1403.1 352.119C1398.42 343.009 1396.07 331.879 1396.07 318.732V250.002C1396.07 236.984 1398.42 225.983 1403.1 217.003C1407.92 207.889 1413.84 200.535 1420.87 194.937C1428.03 189.21 1435.78 185.109 1444.11 182.636C1452.44 180.163 1460.13 178.926 1467.15 178.926H1558.74C1571.76 178.926 1582.83 181.269 1591.94 185.955C1601.05 190.642 1608.41 196.565 1614 203.724C1619.6 210.753 1623.64 218.431 1626.11 226.762C1628.71 235.093 1630.02 242.841 1630.02 250.002V318.732ZM1579.24 250.389C1579.24 243.362 1577.49 238.155 1573.97 234.768C1570.46 231.386 1565.38 229.695 1558.74 229.695H1467.55C1460.78 229.695 1455.63 231.453 1452.12 234.964C1448.6 238.351 1446.84 243.362 1446.84 250.002V318.732C1446.84 325.368 1448.6 330.446 1452.12 333.962C1455.63 337.477 1460.78 339.231 1467.55 339.231H1558.74C1565.64 339.231 1570.78 337.477 1574.17 333.962C1577.55 330.446 1579.24 325.368 1579.24 318.732V250.389ZM1907.31 390H1856.54V272.845C1856.54 266.205 1855.37 260.282 1853.03 255.075C1850.82 249.739 1847.75 245.182 1843.85 241.408C1839.94 237.634 1835.32 234.768 1829.99 232.819C1824.78 230.736 1819.11 229.695 1813 229.695H1724.14V390H1673.37V204.115C1673.37 200.6 1674.02 197.346 1675.32 194.351C1676.62 191.227 1678.45 188.559 1680.79 186.346C1683.13 184.003 1685.87 182.181 1688.99 180.879C1692.12 179.577 1695.44 178.926 1698.95 178.926H1813.38C1819.77 178.926 1826.47 179.642 1833.5 181.074C1840.66 182.506 1847.69 184.849 1854.59 188.103C1861.62 191.227 1868.26 195.263 1874.51 200.209C1880.89 205.026 1886.48 210.95 1891.3 217.977C1896.25 224.875 1900.15 232.881 1903.02 241.996C1905.89 251.106 1907.31 261.39 1907.31 272.845V390ZM2185.79 390H2135.01V272.845C2135.01 266.205 2133.84 260.282 2131.5 255.075C2129.28 249.739 2126.22 245.182 2122.32 241.408C2118.41 237.634 2113.79 234.768 2108.45 232.819C2103.24 230.736 2097.58 229.695 2091.46 229.695H2002.61V390H1951.84V204.115C1951.84 200.6 1952.49 197.346 1953.79 194.351C1955.09 191.227 1956.92 188.559 1959.26 186.346C1961.6 184.003 1964.34 182.181 1967.46 180.879C1970.59 179.577 1973.91 178.926 1977.42 178.926H2091.85C2098.23 178.926 2104.94 179.642 2111.97 181.074C2119.13 182.506 2126.16 184.849 2133.06 188.103C2140.09 191.227 2146.73 195.263 2152.98 200.209C2159.36 205.026 2164.96 210.95 2169.77 217.977C2174.72 224.875 2178.62 232.881 2181.49 241.996C2184.35 251.106 2185.79 261.39 2185.79 272.845V390ZM2457.42 248.827C2457.42 255.858 2456.18 263.473 2453.71 271.675C2451.24 279.743 2447.2 287.295 2441.6 294.323C2436.14 301.225 2428.91 307.015 2419.93 311.701C2411.07 316.387 2400.27 318.732 2387.51 318.732H2295.92V270.5H2387.51C2394.41 270.5 2399.75 268.417 2403.52 264.252C2407.3 259.957 2409.19 254.688 2409.19 248.44C2409.19 241.8 2407.04 236.593 2402.74 232.819C2398.58 229.041 2393.5 227.154 2387.51 227.154H2295.92C2289.02 227.154 2283.69 229.303 2279.91 233.598C2276.13 237.763 2274.25 242.97 2274.25 249.219V320.099C2274.25 326.868 2276.33 332.137 2280.49 335.915C2284.79 339.689 2290.06 341.576 2296.31 341.576H2387.51V390H2295.92C2288.89 390 2281.28 388.763 2273.08 386.289C2265.01 383.818 2257.45 379.845 2250.42 374.379C2243.52 368.781 2237.73 361.558 2233.04 352.706C2228.36 343.725 2226.01 332.853 2226.01 320.099V248.827C2226.01 241.8 2227.25 234.248 2229.72 226.179C2232.2 217.977 2236.17 210.428 2241.63 203.529C2247.23 196.5 2254.46 190.642 2263.31 185.955C2272.3 181.269 2283.17 178.926 2295.92 178.926H2387.51C2394.54 178.926 2402.09 180.163 2410.16 182.636C2418.36 185.109 2425.92 189.145 2432.82 194.742C2439.84 200.209 2445.7 207.434 2450.39 216.415C2455.08 225.267 2457.42 236.072 2457.42 248.827ZM2696.05 390H2558.38C2551.35 390 2543.67 388.763 2535.34 386.289C2527 383.818 2519.26 379.782 2512.1 374.184C2505.07 368.456 2499.15 361.1 2494.33 352.119C2489.64 343.009 2487.3 331.879 2487.3 318.732V250.002C2487.3 245.182 2487.82 240.109 2488.86 234.768C2490.03 229.432 2491.79 224.163 2494.13 218.956C2496.48 213.616 2499.47 208.54 2503.12 203.724C2506.89 198.908 2511.38 194.677 2516.59 191.032C2521.93 187.388 2528.05 184.458 2534.95 182.246C2541.85 180.033 2549.66 178.926 2558.38 178.926H2696.05V229.695H2558.38C2551.74 229.695 2546.66 231.386 2543.15 234.768C2539.76 238.155 2538.07 243.362 2538.07 250.389V318.732C2538.07 325.368 2539.83 330.446 2543.34 333.962C2546.86 337.477 2552 339.231 2558.77 339.231H2696.05V390ZM2930 229.695H2841.34V390H2789.98V229.695H2723.98V178.926H2789.98V110H2841.34V178.926H2930V229.695Z" fill="white"/>
<rect width="500" height="500" rx="118" fill="url(#paint0_linear_218_8)"/>
<path d="M250.479 53C252.015 53.1569 253.478 53.5399 254.866 54.149C255.24 54.3126 256.553 55.0348 258.809 56.316C286.61 72.0957 314.262 88.1423 341.764 104.455C342.212 104.723 342.713 104.978 342.674 105.562C342.647 105.978 342.493 106.27 342.215 106.439C312.507 124.248 280.959 142.649 247.571 161.643C245.426 162.863 244.022 163.692 243.356 164.13C239.805 166.47 237.026 169.613 235.569 173.515C233.461 179.172 233.835 185.571 234.238 191.681C234.331 193.09 234.383 194.457 234.399 195.781C234.598 212.685 234.632 229.643 234.498 246.66C234.478 248.99 234.534 250.644 234.664 251.622C235.445 257.502 238.946 261.721 243.958 264.686C246.955 266.459 250.071 267.002 253.201 265.687C256.15 264.447 259.31 262.244 261.323 259.658C263.819 256.453 265.065 252.717 265.06 248.451C265.047 237.55 265.065 218.995 265.119 192.785C265.124 190.937 265.235 189.594 265.452 188.754C266.333 185.343 269.083 182.663 272.065 180.95C284.062 174.067 294.85 167.788 304.428 162.114C306.215 161.056 307.513 160.419 308.319 160.205C311.492 159.365 314.858 160.232 317.637 161.894C323.262 165.258 331.262 170.046 341.635 176.257C341.979 176.463 342.208 176.636 342.323 176.774C342.566 177.07 342.607 177.381 342.439 177.708C342.33 177.924 342.061 178.164 341.633 178.426C327.665 186.946 314.867 194.567 303.232 201.288C298.127 204.236 297.314 209.317 297.366 214.774C297.525 231.514 297.588 247.858 297.554 263.808C297.547 266.667 297.54 268.326 297.536 268.779C297.511 271.029 297.38 272.664 297.142 273.688C296.696 275.573 295.817 277.282 294.506 278.812C293.131 280.414 291.81 281.614 290.544 282.409C284.524 286.2 275.895 291.741 264.657 299.035C262.17 300.65 259.579 301.855 256.882 302.656C248.169 305.242 239.789 302.819 232.501 297.637C225.323 292.529 217.584 287.416 209.288 282.297C205.467 279.939 202.994 276.703 202.263 272.112C201.925 270.002 201.773 267.812 201.805 265.545C202.242 234.675 202.265 203.698 201.875 172.612C201.864 171.557 201.825 169.906 201.764 167.661C201.608 161.953 201.071 155.202 204.525 150.262C205.793 148.444 207.259 147.059 208.921 146.106C231.33 133.259 253.007 120.561 273.954 108.014C274.681 107.578 274.926 106.53 274.403 105.8C274.308 105.666 274.122 105.428 273.846 105.084C267.067 96.6719 256.913 90.9885 245.979 93.2469C244.704 93.511 243.152 94.0065 241.329 94.7328C238.351 95.9199 235.83 97.1152 233.769 98.3187C215.177 109.17 197.296 119.563 180.129 129.497C178.952 130.177 178.113 130.725 177.612 131.139C175.166 133.157 173.796 136.235 173.298 139.375C173.002 141.244 172.856 142.777 172.859 143.974C172.952 175.014 173.005 195.445 173.02 205.265C173.069 236.948 173.241 262.53 173.535 282.015C173.572 284.539 173.883 286.899 174.468 289.095C175.549 293.157 177.958 296.167 181.288 298.615C182.671 299.633 183.769 300.393 184.581 300.895C202.444 311.961 220.649 322.633 239.191 332.919C241.078 333.966 242.55 334.678 243.605 335.056C247.431 336.423 251.365 336.494 255.407 335.269C257.072 334.763 258.51 334.167 259.726 333.48C278.334 322.963 296.947 312.002 315.564 300.599C316.753 299.868 317.988 298.977 319.269 297.921C323.016 294.836 325.194 290.852 325.806 285.971C326.112 283.543 326.284 280.879 326.325 277.983C326.655 254.531 326.868 239.838 326.968 233.906C327.036 229.732 327.692 225.528 330.311 222.223C331.708 220.455 334.018 218.787 335.989 217.628C363.772 201.277 389.179 186.316 415.965 170.905C416.697 170.484 417.211 170.261 417.51 170.234C418.726 170.125 419.829 170.908 420.096 172.121C420.561 174.228 420.805 176.426 420.828 178.716C420.851 181.194 420.853 188.999 420.835 202.129C420.783 241.859 420.835 281.589 420.993 321.319C421.002 321.353 421.002 321.392 420.993 321.435V330.456V336.458C420.943 336.726 420.943 337.001 420.993 337.28C420.993 337.303 420.993 337.326 420.993 337.349C420.717 341.273 420.52 344.954 418.515 348.431C416.142 352.55 412.269 355.033 408.204 357.37C357.747 386.402 307.451 415.721 257.321 445.328C255.697 446.288 253.745 446.844 251.462 447H251.292H250.275H250.062C247.843 446.826 245.691 446.34 243.61 445.541C241.488 444.725 239.667 443.873 238.147 442.982C188.746 414.037 138.547 384.654 88.3713 355.718C87.6357 355.294 86.7463 354.673 85.7031 353.853C81.8195 350.809 79.8373 346.553 79.3418 341.598C79.1936 340.111 79.0797 338.62 79 337.124V336.95C79.0489 336.808 79.0489 336.675 79 336.552C79 336.54 79 336.531 79 336.522C79.0537 336.373 79.0537 336.265 79 336.201V330.229V324.56V324.322C79.0374 324.274 79.0562 324.2 79.0562 324.106C79.2743 273.947 79.3085 221.82 79.1588 167.725C79.1554 166.167 79.2466 164.086 79.4321 161.482C79.7005 157.723 80.5843 153.496 82.5225 150.267C83.5576 148.543 84.6762 147.153 85.8788 146.096C87.7455 144.457 89.7033 143.16 91.752 142.206C93.8051 141.248 96.4342 140.156 98.7482 138.942C102.317 137.073 105.787 135.085 109.159 132.976C109.721 132.626 110.142 132.459 110.421 132.474C111.383 132.518 111.544 133.318 111.542 134.212C111.481 211.812 111.478 257.365 111.581 319.715C111.584 322.072 111.681 323.717 111.871 324.647C113.153 330.919 118.596 334.751 123.718 337.69C163.126 360.293 202 382.938 240.339 405.623C242.369 406.823 243.807 407.582 244.658 407.905C247.458 408.958 250.327 409.039 253.26 408.145C255.6 407.43 257.919 406.4 260.216 405.048C288.476 388.438 320.875 369.425 357.407 348.01C362.27 345.158 367.817 341.933 374.052 338.334C378.982 335.487 383.573 332.314 385.786 327.277C387.245 323.953 387.498 320.831 387.575 316.806C388.132 287.265 388.164 258.764 387.675 231.308C387.655 230.172 386.606 229.31 385.507 229.297C385.458 229.297 384.955 229.37 383.999 229.512C380.054 230.108 376.441 231.267 373.159 232.987C364.829 237.351 360.399 244.997 359.627 254.357C359.527 255.566 359.487 257.211 359.502 259.289C359.593 270.497 359.627 281.889 359.604 293.464C359.6 296.245 359.525 298.922 359.38 301.495C359.099 306.461 357.876 311.32 354.724 315.076C352.807 317.36 350.756 318.739 347.9 320.448C320.785 336.68 293.461 352.593 265.928 368.191C262.743 369.994 259.638 371.673 256.61 373.23C255.915 373.585 254.941 374.037 254.112 374.273C250.683 375.244 247.347 375.136 244.101 373.947C242.552 373.382 240.962 372.639 239.331 371.719C238.874 371.462 232.562 367.824 220.393 360.81C197.176 347.43 173.87 333.688 150.474 319.587C149.407 318.945 148.235 318.05 146.959 316.9C142.861 313.207 140.81 308.546 140.803 302.913C140.77 273.633 140.705 247.883 140.608 225.668C140.567 216.547 140.741 182.784 141.13 124.383C141.145 122.016 141.572 119.527 142.519 117.318C144.345 113.051 148.348 110.456 152.137 108.182C164.544 100.74 174.362 94.874 181.591 90.5849C202.487 78.1878 223.077 66.2597 243.354 54.8003C245.059 53.8379 246.878 53.2378 248.81 53H250.479Z" fill="white"/>
<path d="M362.825 148.76C359.692 146.319 356.405 143.483 352.959 140.254C352.669 139.98 352.495 139.698 352.442 139.407C352.351 138.912 352.491 138.518 352.864 138.225C357.334 134.714 362.728 130.622 369.05 125.949C369.998 125.249 371.258 124.436 372.203 123.876C374.767 122.355 377.563 121.309 380.246 121.905C381.064 122.088 382.313 122.703 383.996 123.748C390.258 127.64 396.288 131.989 402.083 136.796C402.962 137.525 403.705 137.87 403.469 139.104C403.403 139.442 403.215 139.792 402.905 140.154C400.282 143.232 397.59 146.031 394.833 148.551C392.369 150.801 389.891 152.587 387.402 153.91C378.912 158.427 370.21 154.522 362.825 148.76Z" fill="white"/>
<defs>
<linearGradient id="paint0_linear_218_8" x1="250" y1="0" x2="250" y2="500" gradientUnits="userSpaceOnUse">
<stop stop-color="#262626"/>
<stop offset="1"/>
</linearGradient>
</defs>
</svg>
